<svg xmlns="http://www.w3.org/2000/svg" viewBox="0 0 32 32">
  <rect x="0" y="0" width="32" height="3" fill="#BF0A30"/>
  <rect x="0" y="3" width="32" height="3" fill="#FFFFFF"/>
  <rect x="0" y="6" width="32" height="3" fill="#BF0A30"/>
  <rect x="0" y="9" width="32" height="3" fill="#FFFFFF"/>
  <rect x="0" y="12" width="32" height="3" fill="#BF0A30"/>
  <rect x="0" y="15" width="32" height="3" fill="#FFFFFF"/>
  <rect x="0" y="18" width="32" height="3" fill="#BF0A30"/>
  <rect x="0" y="21" width="32" height="3" fill="#FFFFFF"/>
  <rect x="0" y="24" width="32" height="3" fill="#BF0A30"/>
  <rect x="0" y="27" width="32" height="5" fill="#FFFFFF"/>
  <rect x="0" y="0" width="14" height="15" fill="#002868"/>
  <polygon points="7,2 8,5 11,5 8.5,7 9.5,10 7,8 4.5,10 5.5,7 3,5 6,5" fill="#FFFFFF"/>
</svg>
